PathFileType	4	(X/Y/Z)	/Users/itak/Documents/Research/Walk-IL/dataset/trc/00342_00011.trc
DataRate	CameraRate	NumFrames	NumMarkers	Units	OrigDataRate	OrigDataStartFrame	OrigNumFrames
100.000000	100.000000	4	55	mm	100.000000	559	746
Frame#	Time	RPSI			LPSI			L3			STRN			T10			C7			CLAV			RBAK			LBAK			LSHO			LUPA			LAEL			LAOL			LWTS			LWPS			LFRA			LIFD			LHPS			LHTS			RSHO			RUPA			RAEL			RAOL			RWTS			RWPS			RFRA			RIFD			RHTS			RHPS			RBHD			LFHD			RFHD			LBHD			LHIP			RHIP			RASI			LASI			LKNE			LTHI			LANK			LTIP			LTOE			LMT1			LMT5			LHEE			RKNE			RTHI			RTIP			RTOE			RMT1			RMT5			RHEE			RANK			*53			*54			
		X1	Y1	Z1	X2	Y2	Z2	X3	Y3	Z3	X4	Y4	Z4	X5	Y5	Z5	X6	Y6	Z6	X7	Y7	Z7	X8	Y8	Z8	X9	Y9	Z9	X10	Y10	Z10	X11	Y11	Z11	X12	Y12	Z12	X13	Y13	Z13	X14	Y14	Z14	X15	Y15	Z15	X16	Y16	Z16	X17	Y17	Z17	X18	Y18	Z18	X19	Y19	Z19	X20	Y20	Z20	X21	Y21	Z21	X22	Y22	Z22	X23	Y23	Z23	X24	Y24	Z24	X25	Y25	Z25	X26	Y26	Z26	X27	Y27	Z27	X28	Y28	Z28	X29	Y29	Z29	X30	Y30	Z30	X31	Y31	Z31	X32	Y32	Z32	X33	Y33	Z33	X34	Y34	Z34	X35	Y35	Z35	X36	Y36	Z36	X37	Y37	Z37	X38	Y38	Z38	X39	Y39	Z39	X40	Y40	Z40	X41	Y41	Z41	X42	Y42	Z42	X43	Y43	Z43	X44	Y44	Z44	X45	Y45	Z45	X46	Y46	Z46	X47	Y47	Z47	X48	Y48	Z48	X49	Y49	Z49	X50	Y50	Z50	X51	Y51	Z51	X52	Y52	Z52	X53	Y53	Z53	X54	Y54	Z54	X55	Y55	Z55	

560	5.59	-606.698974609375	964.3429565429688	324.2767028808594	-481.0112915039062	962.1158447265625	292.1996765136719	-546.482421875	1021.534484863281	304.3426818847656	-456.1813659667969	1218.043823242188	513.3550415039062	-533.1309204101562	1141.003784179688	286.9266052246094	-493.3614807128906	1389.45263671875	308.366943359375	-456.2481689453125	1340.694458007812	461.2127075195312	-578.2425537109375	1254.228759765625	289.2401123046875	-403.5725402832031	1345.751953125	268.4087219238281	-323.8056030273438	1360.429931640625	331.42236328125	-271.8871459960938	1236.78515625	298.1737365722656	-259.4985656738281	1034.764282226562	323.982421875	-330.4361877441406	1019.020446777344	278.6091613769531	-280.1171264648438	832.2070922851562	480.782470703125	-237.7715911865234	804.4364624023438	434.109619140625	-250.3040771484375	935.4664306640625	355.4140625	-278.5893249511719	680.5399169921875	537.2027587890625	-242.9192810058594	738.275146484375	455.0513000488281	-260.7259826660156	760.4450073242188	512.3574829101562	-632.9152221679688	1389.660888671875	406.7144775390625	-700.739990234375	1330.248046875	412.3837890625	-767.1896362304688	1071.9326171875	428.5942687988281	-685.1708374023438	1051.182250976562	386.1249084472656	-751.1038818359375	842.2999877929688	540.9273071289062	-822.5265502929688	838.8760375976562	514.5628662109375	-785.8295288085938	1007.578674316406	456.2576293945312	-773.5215454101562	671.2896118164062	546.0099487304688	-773.4451904296875	742.8057250976562	568.8397216796875	-827.9526977539062	750.9786376953125	526.4115600585938	-542.334228515625	1608.0263671875	392.2541809082031	-365.0179748535156	1596.886840820312	500.6539306640625	-460.6417236328125	1605.944458007812	533.0944213867188	-417.3500671386719	1592.712158203125	321.4862365722656	-359.7596740722656	904.658447265625	353.811279296875	-693.879150390625	920.8364868164062	431.7612915039062	-624.3870239257812	953.7528686523438	520.8928833007812	-388.4410095214844	936.9011840820312	482.8187866210938	-432.8648071289062	449.996826171875	469.1929016113281	-394.2312622070312	587.81884765625	449.012939453125	-542.1768798828125	46.9305419921875	412.2067565917969	-477.2331237792969	231.8069000244141	443.8280944824219	-527.185546875	44.08258819580078	626.2369384765625	-589.2444458007812	30.35564231872559	574.6817016601562	-487.6497497558594	44.09319305419922	524.8681640625	-617.3853149414062	44.17050552368164	402.9103088378906	-701.9735107421875	492.0359191894531	596.0319213867188	-696.1585083007812	736.0454711914062	555.2182006835938	-716.4786987304688	385.628173828125	539.2069702148438	-733.8786010742188	54.16634750366211	410.4380798339844	-689.2144775390625	88.58135986328125	370.5343322753906	-799.1194458007812	116.1955184936523	337.927001953125	-726.615478515625	236.7108764648438	254.8356323242188	-775.8233032226562	200.3414459228516	285.4596252441406	nan	nan	nan	nan	nan	nan	
561	5.600000000000001	-607.6990966796875	964.8821411132812	333.3821105957031	-482.86669921875	962.4702758789062	298.0317687988281	-547.4360961914062	1022.252136230469	311.9633178710938	-452.3427734375	1218.326049804688	518.9492797851562	-534.0885620117188	1141.641845703125	294.2001342773438	-493.8675842285156	1390.05322265625	315.189208984375	-453.6155395507812	1341.0810546875	467.1321716308594	-579.0905151367188	1254.903686523438	297.5447082519531	-405.0361328125	1346.584594726562	273.4325256347656	-323.8827514648438	1361.189819335938	334.6629943847656	-271.9477233886719	1237.39404296875	301.3547973632812	-257.5370178222656	1035.749877929688	330.3086853027344	-328.6012573242188	1018.67724609375	285.6053771972656	-276.2887878417969	837.7314453125	492.7404479980469	-233.8643493652344	809.0220947265625	446.5343627929688	-247.6093902587891	937.5427856445312	364.2656860351562	-272.8328247070312	687.9769897460938	553.9840087890625	-238.2842864990234	743.44384765625	469.7301940917969	-255.8677825927734	767.265869140625	526.4191284179688	-631.3426513671875	1390.128051757812	416.3933410644531	-699.0831298828125	1330.812377929688	423.0901794433594	-764.7328491210938	1072.125732421875	437.420166015625	-683.2677001953125	1052.141845703125	393.5351867675781	-746.8699340820312	840.9462280273438	546.371826171875	-818.5237426757812	837.7867431640625	520.8544921875	-782.8624877929688	1007.439453125	464.607666015625	-768.6720581054688	669.8084106445312	548.823974609375	-768.7028198242188	740.9793090820312	572.9595336914062	-823.9082641601562	749.9285278320312	531.2964477539062	-540.9392700195312	1608.601928710938	400.2290649414062	-361.9129943847656	1596.987548828125	505.8268432617188	-457.0452575683594	1606.067138671875	539.7713012695312	-417.0914611816406	1593.327392578125	327.4549255371094	-360.5535583496094	904.2647705078125	355.5711669921875	-691.5499267578125	921.7109985351562	443.4819641113281	-619.6605834960938	954.5490112304688	530.4081420898438	-384.9512939453125	936.8961791992188	486.1015930175781	-431.8387756347656	449.6323547363281	470.0615234375	-393.7899475097656	587.7552490234375	449.6277160644531	-542.181884765625	46.92873001098633	412.2251892089844	-476.9781494140625	231.8968811035156	444.1439208984375	-527.1912231445312	44.02878952026367	626.2884521484375	-589.244384765625	30.37221908569336	574.704345703125	-487.5845947265625	44.02927398681641	524.8579711914062	-617.3768310546875	44.34206008911133	402.8860473632812	-693.6738891601562	494.2972412109375	612.3548583984375	-690.837646484375	738.0569458007812	568.3515625	-709.62353515625	386.5723876953125	558.8201904296875	-731.0084228515625	53.59270858764648	444.9333190917969	-687.1981201171875	85.24710845947266	401.988037109375	-797.6740112304688	112.1104965209961	370.9322204589844	-727.0021362304688	227.5744018554688	279.5368957519531	-775.5371704101562	193.0756988525391	313.3231506347656	nan	nan	nan	nan	nan	nan	
562	5.61	-608.6732177734375	965.3583374023438	342.5428466796875	-484.793212890625	962.771484375	303.9052734375	-548.453857421875	1022.936706542969	319.5113525390625	-448.4519958496094	1218.513549804688	524.4520263671875	-535.0051879882812	1142.202392578125	301.5331115722656	-494.3470764160156	1390.577392578125	322.0177001953125	-450.9438171386719	1341.377563476562	472.9970703125	-579.8997192382812	1255.503540039062	305.8673706054688	-406.5022888183594	1347.345092773438	278.430419921875	-324.0106201171875	1361.857543945312	337.874755859375	-272.0682067871094	1237.931884765625	304.4826965332031	-255.5814514160156	1036.704833984375	336.483154296875	-326.7787780761719	1018.32470703125	292.5231018066406	-272.3933715820312	843.18603515625	504.29248046875	-229.9484710693359	813.5579223632812	458.510498046875	-244.8656158447266	939.6121215820312	372.8391418457031	-267.4355163574219	695.4319458007812	569.9913940429688	-233.8171844482422	748.5718383789062	483.8097229003906	-251.1259613037109	773.9671630859375	539.87890625	-629.6639404296875	1390.50341796875	426.078857421875	-697.3169555664062	1331.296752929688	433.803955078125	-762.3306884765625	1072.292236328125	446.3141174316406	-681.5209350585938	1053.040405273438	400.9316101074219	-742.6749877929688	839.7008666992188	551.9464111328125	-814.5784301757812	836.7695922851562	527.3646240234375	-779.9518432617188	1007.276977539062	473.0231323242188	-763.9080200195312	668.5081787109375	552.024658203125	-764.0287475585938	739.2803344726562	577.289306640625	-819.9066162109375	748.9358520507812	536.5006713867188	-539.525390625	1609.089965820312	408.1338806152344	-358.8327331542969	1597.047119140625	510.907958984375	-453.4515075683594	1606.13427734375	546.3356323242188	-416.8508911132812	1593.86572265625	333.3744812011719	-361.2437744140625	904.0038452148438	357.544677734375	-689.1904907226562	922.5166015625	455.1409912109375	-614.859619140625	955.2478637695312	539.8231811523438	-381.5314025878906	936.8826904296875	489.3011169433594	-430.82568359375	449.2680053710938	470.9673156738281	-393.4310607910156	587.6798095703125	450.2274475097656	-542.2064208984375	46.93707275390625	412.269287109375	-476.7399597167969	231.9769287109375	444.5205383300781	-527.1950073242188	43.96681213378906	626.3555908203125	-589.2416381835938	30.3879451751709	574.7328491210938	-487.5314636230469	43.97152328491211	524.8544311523438	-617.3792724609375	44.53745269775391	402.8667907714844	-684.988037109375	496.4110717773438	628.001708984375	-685.2784423828125	739.9356689453125	581.2374877929688	-702.2777709960938	387.3036193847656	578.0487060546875	-727.0214233398438	53.08895111083984	479.8022155761719	-684.1574096679688	81.742431640625	433.8304443359375	-795.2848510742188	107.8822174072266	404.4627685546875	-726.775146484375	217.7618865966797	304.8565368652344	-774.6068725585938	185.3680877685547	341.7427368164062	nan	nan	nan	nan	nan	nan	
563	5.62	-609.6090698242188	965.78369140625	351.7668151855469	-486.7804565429688	963.0418090820312	309.8357238769531	-549.537353515625	1023.596984863281	326.9915771484375	-444.5248718261719	1218.610473632812	529.8778686523438	-535.882080078125	1142.685180664062	308.9139404296875	-494.7873840332031	1391.023559570312	328.8592224121094	-448.2370910644531	1341.583740234375	478.8105773925781	-580.6567993164062	1256.027954101562	314.21142578125	-407.9360961914062	1348.022827148438	283.3943786621094	-324.1804504394531	1362.427490234375	341.0788269042969	-272.2466735839844	1238.390991210938	307.586181640625	-253.6515960693359	1037.6171875	342.5238647460938	-324.9814147949219	1017.961791992188	299.3581848144531	-268.4625854492188	848.5300903320312	515.4142456054688	-226.0555877685547	818.0008544921875	470.0272827148438	-242.0956878662109	941.6463623046875	381.1275329589844	-262.3751831054688	702.8155517578125	585.2265625	-229.5292510986328	753.6047973632812	497.2826232910156	-246.5173797607422	780.4971313476562	552.7357177734375	-627.8777465820312	1390.789428710938	435.7616271972656	-695.4395141601562	1331.702270507812	444.5149230957031	-759.9677734375	1072.431762695312	455.2937316894531	-679.9229125976562	1053.878173828125	408.3296203613281	-738.4966430664062	838.5488891601562	557.6556396484375	-810.6737060546875	835.8193359375	534.1041259765625	-777.0763549804688	1007.084655761719	481.5158081054688	-759.2276611328125	667.3624267578125	555.628173828125	-759.3978271484375	737.6859130859375	581.8361206054688	-815.9332885742188	747.9927368164062	542.0448608398438	-538.087158203125	1609.48583984375	415.9684753417969	-355.7761535644531	1597.067504882812	515.9036865234375	-449.8615417480469	1606.149780273438	552.7923583984375	-416.616943359375	1594.319213867188	339.25244140625	-361.8889770507812	903.85595703125	359.7128295898438	-686.7534790039062	923.2618408203125	466.7742919921875	-609.9929809570312	955.8492431640625	549.138671875	-378.169189453125	936.8905639648438	492.4521789550781	-429.8125	448.921142578125	471.9667358398438	-393.1294860839844	587.6087646484375	450.88671875	-542.2432861328125	46.95847702026367	412.3358764648438	-476.5033874511719	232.044189453125	444.9820556640625	-527.1951904296875	43.89712524414062	626.436279296875	-589.2315063476562	30.40390205383301	574.7666015625	-487.4879760742188	43.91948318481445	524.8544311523438	-617.39208984375	44.7567138671875	402.8577575683594	-675.96337890625	498.3484802246094	642.9656372070312	-679.4788208007812	741.65771484375	593.88525390625	-694.4588012695312	387.8131713867188	596.8721313476562	-721.80126953125	52.71134185791016	514.8583374023438	-679.98583984375	78.16911315917969	465.9367980957031	-791.8430786132812	103.5731048583984	438.4029541015625	-725.8580932617188	207.3946228027344	330.7990417480469	-772.9344482421875	177.3077850341797	370.6902465820312	nan	nan	nan	nan	nan	nan	
